<svg xmlns="http://www.w3.org/2000/svg" version="1.1" xmlns:xlink="http://www.w3.org/1999/xlink" xmlns:svgjs="http://svgjs.dev/svgjs" viewBox="0 0 6.984536371884628 4.197086367880499"><g transform="matrix(1,0,0,1,1.5482618382860642,1.7435431839402498)"><rect width="6.984536371884628" height="6.984536371884628" x="-1.5482618382860642" y="-3.137268185942314" fill="#ffffff"></rect><g clip-path="url(#SvgjsClipPath1002)"><path d=" M 4.9880126953125 0.355 C 4.9880126953125 1.2664253029283532 3.625164784570312 2.0052813456541854 1.94400634765625 2.0052813456541854 C 0.2628479107421873 2.0052813456541854 -1.1 1.2664253029283532 -1.1 0.355 C -1.1 -0.5564253029283528 0.2628479107421873 -1.2952813456541856 1.94400634765625 -1.2952813456541856 C 3.625164784570312 -1.2952813456541856 4.9880126953125 -0.5564253029283528 4.9880126953125 0.355 Z" fill="#3682ae" transform="matrix(1,0,0,1,0,0)" fill-rule="nonzero"></path></g><path d=" M 0.614 0.16999999999999982 L 0.41000000000000003 0.16999999999999982 L 0.41000000000000003 0.7099999999999999 L 0.215 0.7099999999999999 L 0.215 0.16999999999999982 L 0.01 0.16999999999999982 L 0.01 -1.1102230246251565e-16 L 0.614 -1.1102230246251565e-16 L 0.614 0.16999999999999982 M 1.0050234375 0.7159999999999999 Q 0.9200234375 0.7159999999999999 0.8590234375 0.6879999999999998 Q 0.7980234375 0.6599999999999998 0.7595234375 0.6109999999999999 Q 0.7210234375 0.5619999999999998 0.7030234375 0.49849999999999983 Q 0.6850234375 0.43499999999999983 0.6850234375 0.3649999999999998 L 0.6850234375 -1.1102230246251565e-16 L 0.8800234375 -1.1102230246251565e-16 L 0.8800234375 0.3649999999999998 Q 0.8800234375 0.39999999999999986 0.8870234375 0.43199999999999983 Q 0.8940234375 0.46399999999999986 0.9090234375 0.4889999999999999 Q 0.9240234375 0.5139999999999998 0.9475234375 0.5284999999999999 Q 0.9710234375 0.5429999999999998 1.0050234375 0.5429999999999998 Q 1.0400234375 0.5429999999999998 1.0640234375 0.5284999999999999 Q 1.0880234375 0.5139999999999998 1.1025234375 0.4884999999999998 Q 1.1170234374999999 0.46299999999999986 1.1240234375 0.4309999999999998 Q 1.1310234375000001 0.39899999999999985 1.1310234375000001 0.3649999999999998 L 1.1310234375000001 -1.1102230246251565e-16 L 1.3260234375 -1.1102230246251565e-16 L 1.3260234375 0.3649999999999998 Q 1.3260234375 0.43899999999999983 1.3065234375 0.5029999999999999 Q 1.2870234375 0.5669999999999998 1.2480234375 0.6149999999999999 Q 1.2090234375 0.6629999999999998 1.1485234375 0.6894999999999999 Q 1.0880234375 0.7159999999999999 1.0050234375 0.7159999999999999 M 1.44800439453125 0.7099999999999999 L 1.44800439453125 -1.1102230246251565e-16 L 1.77400439453125 -1.1102230246251565e-16 Q 1.82600439453125 -1.1102230246251565e-16 1.8700043945312501 0.020999999999999797 Q 1.9140043945312502 0.041999999999999815 1.9460043945312502 0.07749999999999979 Q 1.97800439453125 0.11299999999999988 1.99550439453125 0.1569999999999998 Q 2.01300439453125 0.20099999999999985 2.01300439453125 0.24599999999999983 Q 2.01300439453125 0.28699999999999987 2.00100439453125 0.32499999999999984 Q 1.9890043945312499 0.3629999999999998 1.96600439453125 0.39449999999999985 Q 1.94300439453125 0.4259999999999998 1.91100439453125 0.44899999999999984 L 2.06100439453125 0.7099999999999999 L 1.84700439453125 0.7099999999999999 L 1.72200439453125 0.4919999999999999 L 1.64300439453125 0.4919999999999999 L 1.64300439453125 0.7099999999999999 L 1.44800439453125 0.7099999999999999 M 1.64300439453125 0.32199999999999984 L 1.76600439453125 0.32199999999999984 Q 1.77800439453125 0.32199999999999984 1.7890043945312502 0.31299999999999983 Q 1.80000439453125 0.3039999999999998 1.8075043945312501 0.28699999999999987 Q 1.81500439453125 0.26999999999999985 1.81500439453125 0.24599999999999983 Q 1.81500439453125 0.22099999999999986 1.80650439453125 0.2044999999999998 Q 1.79800439453125 0.18799999999999983 1.78550439453125 0.17899999999999983 Q 1.7730043945312501 0.16999999999999982 1.7610043945312501 0.16999999999999982 L 1.64300439453125 0.16999999999999982 L 1.64300439453125 0.32199999999999984 M 2.675982421875 0.16999999999999982 L 2.4719824218750004 0.16999999999999982 L 2.4719824218750004 0.7099999999999999 L 2.276982421875 0.7099999999999999 L 2.276982421875 0.16999999999999982 L 2.071982421875 0.16999999999999982 L 2.071982421875 -1.1102230246251565e-16 L 2.675982421875 -1.1102230246251565e-16 L 2.675982421875 0.16999999999999982 M 2.757005859375 0.7099999999999999 L 2.757005859375 -1.1102230246251565e-16 L 2.9520058593750003 -1.1102230246251565e-16 L 2.9520058593750003 0.5399999999999998 L 3.274005859375 0.5399999999999998 L 3.274005859375 0.7099999999999999 L 2.757005859375 0.7099999999999999 M 3.85802783203125 0.5399999999999998 L 3.85802783203125 0.7099999999999999 L 3.3520278320312498 0.7099999999999999 L 3.3520278320312498 -1.1102230246251565e-16 L 3.8490278320312497 -1.1102230246251565e-16 L 3.8490278320312497 0.16999999999999982 L 3.54702783203125 0.16999999999999982 L 3.54702783203125 0.26999999999999985 L 3.80502783203125 0.26999999999999985 L 3.80502783203125 0.4279999999999998 L 3.54702783203125 0.4279999999999998 L 3.54702783203125 0.5399999999999998 L 3.85802783203125 0.5399999999999998" fill="#ffffff" fill-rule="nonzero"></path></g><defs><clipPath id="SvgjsClipPath1002"><path d=" M -1.1 -1.2952813456541856 h 6.0880126953125 v 3.300562691308371 h -6.0880126953125 Z"></path></clipPath></defs></svg>